<svg width="24" height="24" viewBox="0 0 24 24" fill="none" xmlns="http://www.w3.org/2000/svg">
<path d="M8.88 19.3704C7.90667 18.9501 7.06 18.38 6.34 17.66C5.62 16.94 5.05013 16.0933 4.6304 15.12C4.21067 14.1467 4.00053 13.1067 4 12C3.99947 10.8933 4.2096 9.85334 4.6304 8.88C5.0512 7.90667 5.62107 7.06 6.34 6.34C7.05893 5.62 7.9056 5.05013 8.88 4.6304C9.8544 4.21067 10.8944 4.00053 12 4C13.1056 3.99947 14.1456 4.2096 15.12 4.6304C16.0944 5.0512 16.9411 5.62107 17.66 6.34C18.3789 7.05893 18.9491 7.9056 19.3704 8.88C19.7917 9.8544 20.0016 10.8944 20 12C19.9984 13.1056 19.7883 14.1456 19.3696 15.12C18.9509 16.0944 18.3811 16.9411 17.66 17.66C16.9389 18.3789 16.0923 18.9491 15.12 19.3704C14.1477 19.7917 13.1077 20.0016 12 20C10.8923 19.9984 9.85227 19.7891 8.88 19.3704ZM16.54 16.54C17.78 15.3 18.4 13.7867 18.4 12C18.4 10.2133 17.78 8.7 16.54 7.46C15.3 6.22 13.7867 5.6 12 5.6C10.2133 5.6 8.7 6.22 7.46 7.46C6.22 8.7 5.6 10.2133 5.6 12C5.6 13.7867 6.22 15.3 7.46 16.54C8.7 17.78 10.2133 18.4 12 18.4C13.7867 18.4 15.3 17.78 16.54 16.54ZM8.6 15.4C7.66667 14.4667 7.2 13.3333 7.2 12C7.2 10.6667 7.66667 9.53334 8.6 8.6C9.53334 7.66667 10.6667 7.2 12 7.2C13.3333 7.2 14.4667 7.66667 15.4 8.6C16.3333 9.53334 16.8 10.6667 16.8 12C16.8 13.3333 16.3333 14.4667 15.4 15.4C14.4667 16.3333 13.3333 16.8 12 16.8C10.6667 16.8 9.53334 16.3333 8.6 15.4ZM14.26 14.26C14.8867 13.6333 15.2 12.88 15.2 12C15.2 11.12 14.8867 10.3667 14.26 9.74C13.6333 9.11334 12.88 8.8 12 8.8C11.12 8.8 10.3667 9.11334 9.74 9.74C9.11334 10.3667 8.8 11.12 8.8 12C8.8 12.88 9.11334 13.6333 9.74 14.26C10.3667 14.8867 11.12 15.2 12 15.2C12.88 15.2 13.6333 14.8867 14.26 14.26ZM10.8704 13.1304C10.5568 12.8168 10.4 12.44 10.4 12C10.4 11.56 10.5568 11.1835 10.8704 10.8704C11.184 10.5573 11.5605 10.4005 12 10.4C12.4395 10.3995 12.8163 10.5563 13.1304 10.8704C13.4445 11.1845 13.6011 11.5611 13.6 12C13.5989 12.4389 13.4424 12.8157 13.1304 13.1304C12.8184 13.4451 12.4416 13.6016 12 13.6C11.5584 13.5984 11.1819 13.4419 10.8704 13.1304Z" fill="#B4B4B4"/>
</svg>
