<svg width="17" height="15" viewBox="0 0 17 15" fill="none" xmlns="http://www.w3.org/2000/svg">
<path d="M3.22474 12.899L1.37052 14.7532C1.11522 15.0085 0.822848 15.0657 0.493387 14.9249C0.163926 14.7841 -0.000536144 14.532 1.31301e-06 14.1687V1.61237C1.31301e-06 1.16897 0.158014 0.789524 0.474038 0.474037C0.790063 0.15855 1.16951 0.000537457 1.61237 0H14.5113C14.9547 0 15.3345 0.158012 15.6505 0.474037C15.9665 0.790062 16.1242 1.16951 16.1237 1.61237V11.2866C16.1237 11.73 15.966 12.1097 15.6505 12.4257C15.335 12.7418 14.9553 12.8995 14.5113 12.899H3.22474Z" fill="#B4B4B4"/>
</svg>
