<svg width="44" height="58" viewBox="0 0 44 58" fill="none" xmlns="http://www.w3.org/2000/svg">
<path d="M13.1715 51.8272L13.1658 57.1866L0.00284461 57.1832L0.00170711 39.1986L10.5549 39.1901C14.4763 38.6449 17.9237 36.4222 19.9888 33.0573C20.1106 32.9162 20.1732 32.7614 20.1726 32.5975L9.19147 32.5958V19.3611L19.9171 19.3566C18.3118 16.7543 15.8887 14.9139 13.0844 13.9187C12.0612 13.5738 11.0329 13.3798 9.95856 13.2625C9.70533 13.2682 9.49136 13.2625 9.23699 13.221L0 13.2153L0.00455259 0L43.0546 0.00227629L43.0528 13.2176L31.7974 13.221C32.9042 15.2178 33.7396 17.2374 34.3081 19.3611H43.091V32.5964L34.3804 32.5975L33.8079 34.4492C32.5838 38.0224 30.6189 41.2717 28.0166 44.0043L27.1863 44.8442L26.0106 45.9078C22.3271 49.016 18.013 51.0612 13.1709 51.8272H13.1715Z" fill="#F1592A"/>
</svg>
