<svg width="24" height="24" viewBox="0 0 24 24" fill="none" xmlns="http://www.w3.org/2000/svg">
<path d="M14 21V19.35C14 19.2167 14.025 19.0877 14.075 18.963C14.125 18.8383 14.2 18.7257 14.3 18.625L19.525 13.425C19.675 13.275 19.8417 13.1667 20.025 13.1C20.2083 13.0333 20.3917 13 20.575 13C20.775 13 20.9667 13.0377 21.15 13.113C21.3333 13.1883 21.5 13.3007 21.65 13.45L22.575 14.375C22.7083 14.525 22.8127 14.6917 22.888 14.875C22.9633 15.0583 23.0007 15.2417 23 15.425C22.9993 15.6083 22.966 15.796 22.9 15.988C22.834 16.18 22.7257 16.3507 22.575 16.5L17.375 21.7C17.275 21.8 17.1627 21.875 17.038 21.925C16.9133 21.975 16.784 22 16.65 22H15C14.7167 22 14.4793 21.9043 14.288 21.713C14.0967 21.5217 14.0007 21.284 14 21ZM20.575 16.4L21.5 15.425L20.575 14.5L19.625 15.45L20.575 16.4ZM4 20C3.45 20 2.97933 19.8043 2.588 19.413C2.19667 19.0217 2.00067 18.5507 2 18V6C2 5.45 2.196 4.97933 2.588 4.588C2.98 4.19667 3.45067 4.00067 4 4H9.175C9.44167 4 9.696 4.05 9.938 4.15C10.18 4.25 10.3923 4.39167 10.575 4.575L12 6H20C20.55 6 21.021 6.196 21.413 6.588C21.805 6.98 22.0007 7.45067 22 8V10.075C22 10.375 21.879 10.6167 21.637 10.8C21.395 10.9833 21.116 11.05 20.8 11H20.525C20.0583 11 19.621 11.0833 19.213 11.25C18.805 11.4167 18.434 11.6667 18.1 12L12.575 17.525C12.3917 17.7083 12.25 17.921 12.15 18.163C12.05 18.405 12 18.659 12 18.925V19C12 19.2833 11.904 19.521 11.712 19.713C11.52 19.905 11.2827 20.0007 11 20H4Z" fill="#94A3B8"/>
</svg>
