<svg width="24" height="24" viewBox="0 0 24 24" fill="none" xmlns="http://www.w3.org/2000/svg">
<path d="M18.275 18.275C18.7583 17.7917 19 17.2 19 16.5C19 15.8 18.7583 15.2083 18.275 14.725C17.7917 14.2417 17.2 14 16.5 14C15.8 14 15.2083 14.2417 14.725 14.725C14.2417 15.2083 14 15.8 14 16.5C14 17.2 14.2417 17.7917 14.725 18.275C15.2083 18.7583 15.8 19 16.5 19C17.2 19 17.7917 18.7583 18.275 18.275ZM21.6 22.575C21.3167 22.575 21.0833 22.4833 20.9 22.3L18.9 20.3C18.55 20.5333 18.171 20.7083 17.763 20.825C17.355 20.9417 16.934 21 16.5 21C15.25 21 14.1877 20.5627 13.313 19.688C12.4383 18.8133 12.0007 17.7507 12 16.5C11.9993 15.2493 12.437 14.187 13.313 13.313C14.189 12.439 15.2513 12.0013 16.5 12C17.7487 11.9987 18.8113 12.4363 19.688 13.313C20.5647 14.1897 21.002 15.252 21 16.5C21 16.9333 20.9417 17.3543 20.825 17.763C20.7083 18.1717 20.5333 18.5507 20.3 18.9L22.3 20.9C22.4833 21.0833 22.575 21.3167 22.575 21.6C22.575 21.8833 22.4833 22.1167 22.3 22.3C22.1167 22.4833 21.8833 22.575 21.6 22.575ZM5 22C4.45 22 3.97933 21.8043 3.588 21.413C3.19667 21.0217 3.00067 20.5507 3 20V4C3 3.45 3.196 2.97933 3.588 2.588C3.98 2.19667 4.45067 2.00067 5 2H12.175C12.4417 2 12.696 2.05 12.938 2.15C13.18 2.25 13.3923 2.39167 13.575 2.575L18.425 7.425C18.6083 7.60833 18.75 7.821 18.85 8.063C18.95 8.305 19 8.559 19 8.825V9.275C19 9.575 18.879 9.81667 18.637 10C18.395 10.1833 18.1243 10.2333 17.825 10.15C17.6083 10.1 17.3917 10.0623 17.175 10.037C16.9583 10.0117 16.7333 9.99933 16.5 10C14.5333 10 12.95 10.6667 11.75 12C10.55 13.3333 9.95 14.8417 9.95 16.525C9.95 17.2583 10.0793 17.9833 10.338 18.7C10.5967 19.4167 11.0007 20.0917 11.55 20.725C11.7833 20.975 11.8373 21.25 11.712 21.55C11.5867 21.85 11.3743 22 11.075 22H5ZM12 4V8C12 8.28333 12.096 8.521 12.288 8.713C12.48 8.905 12.7173 9.00067 13 9H17L12 4Z" fill="#94A3B8"/>
</svg>
