<svg width="24" height="24" viewBox="0 0 24 24" fill="none" xmlns="http://www.w3.org/2000/svg">
<path d="M11 9H17C17.2833 9 17.521 8.904 17.713 8.712C17.905 8.52 18.0006 8.28267 18 8C17.9993 7.71733 17.9033 7.48 17.712 7.288C17.5206 7.096 17.2833 7 17 7H10.975C10.6916 7 10.4583 7.096 10.275 7.288C10.0916 7.48 9.99998 7.71733 9.99998 8C9.99998 8.28267 10.096 8.52033 10.288 8.713C10.48 8.90567 10.7173 9.00133 11 9ZM11 12H14C14.2833 12 14.521 11.904 14.713 11.712C14.905 11.52 15.0006 11.2827 15 11C14.9993 10.7173 14.9033 10.48 14.712 10.288C14.5206 10.096 14.2833 10 14 10H10.975C10.6916 10 10.4583 10.096 10.275 10.288C10.0916 10.48 9.99998 10.7173 9.99998 11C9.99998 11.2827 10.096 11.5203 10.288 11.713C10.48 11.9057 10.7173 12.0013 11 12ZM5.44998 20.975C4.89998 21.0583 4.41665 20.9333 3.99998 20.6C3.58331 20.2667 3.33331 19.825 3.24998 19.275L2.02498 10.35C1.94165 9.81667 2.07098 9.33333 2.41298 8.9C2.75498 8.46667 3.19231 8.20833 3.72498 8.125H3.99998V14C3.99998 15.1 4.39165 16.0417 5.17498 16.825C5.95831 17.6083 6.89998 18 7.99998 18H19C18.8666 18.35 18.6626 18.646 18.388 18.888C18.1133 19.13 17.7756 19.2757 17.375 19.325L5.44998 20.975ZM7.99998 16.1C7.44998 16.1 6.97931 15.9043 6.58798 15.513C6.19665 15.1217 6.00065 14.6507 5.99998 14.1V5C5.99998 4.45 6.19598 3.97933 6.58798 3.588C6.97998 3.19667 7.45065 3.00067 7.99998 3H20C20.55 3 21.021 3.196 21.413 3.588C21.805 3.98 22.0006 4.45067 22 5V14.1C22 14.65 21.8043 15.121 21.413 15.513C21.0216 15.905 20.5506 16.1007 20 16.1H7.99998Z" fill="#94A3B8"/>
</svg>
