<svg width="16" height="16" viewBox="0 0 16 16" fill="none" xmlns="http://www.w3.org/2000/svg">
<path d="M5.175 6.825C4.39167 6.04167 4 5.1 4 4C4 2.9 4.39167 1.95833 5.175 1.175C5.95833 0.391667 6.9 0 8 0C9.1 0 10.0417 0.391667 10.825 1.175C11.6083 1.95833 12 2.9 12 4C12 5.1 11.6083 6.04167 10.825 6.825C10.0417 7.60833 9.1 8 8 8C6.9 8 5.95833 7.60833 5.175 6.825ZM0 16V13.2C0 12.6333 0.141667 12.1127 0.425 11.638C0.708333 11.1633 1.1 10.8007 1.6 10.55C2.6 10.05 3.63767 9.66667 4.713 9.4C5.78833 9.13333 6.884 9 8 9C9.116 9 10.212 9.13333 11.288 9.4C12.364 9.66667 13.4013 10.05 14.4 10.55C14.9 10.8 15.2917 11.1627 15.575 11.638C15.8583 12.1133 16 12.634 16 13.2V16H0Z" fill="#141414"/>
</svg>
