<svg width="24" height="24" viewBox="0 0 24 24" fill="none" xmlns="http://www.w3.org/2000/svg">
<path d="M3 22C2.45 22 1.97933 21.8043 1.588 21.413C1.19667 21.0217 1.00067 20.5507 1 20V9H3V20H20V22H3ZM7 18C6.45 18 5.97933 17.8043 5.588 17.413C5.19667 17.0217 5.00067 16.5507 5 16V5H10V3C10 2.45 10.196 1.97933 10.588 1.588C10.98 1.19667 11.4507 1.00067 12 1H16C16.55 1 17.021 1.196 17.413 1.588C17.805 1.98 18.0007 2.45067 18 3V5H23V16C23 16.55 22.8043 17.021 22.413 17.413C22.0217 17.805 21.5507 18.0007 21 18H7ZM12 5H16V3H12V5Z" fill="#141414"/>
</svg>
