<svg width="24" height="24" viewBox="0 0 24 24" fill="none" xmlns="http://www.w3.org/2000/svg">
<path d="M2 19V5C2 4.45 2.196 3.97933 2.588 3.588C2.98 3.19667 3.45067 3.00067 4 3H10C10.55 3 11.021 3.196 11.413 3.588C11.805 3.98 12.0007 4.45067 12 5V7H20C20.55 7 21.021 7.196 21.413 7.588C21.805 7.98 22.0007 8.45067 22 9V19C22 19.55 21.8043 20.021 21.413 20.413C21.0217 20.805 20.5507 21.0007 20 21H4C3.45 21 2.97933 20.8043 2.588 20.413C2.19667 20.0217 2.00067 19.5507 2 19ZM4 19H6V17H4V19ZM4 15H6V13H4V15ZM4 11H6V9H4V11ZM4 7H6V5H4V7ZM8 19H10V17H8V19ZM8 15H10V13H8V15ZM8 11H10V9H8V11ZM8 7H10V5H8V7ZM12 19H20V9H12V11H14V13H12V15H14V17H12V19ZM16 13V11H18V13H16ZM16 17V15H18V17H16Z" fill="white"/>
</svg>
