<svg width="24" height="24" viewBox="0 0 24 24" fill="none" xmlns="http://www.w3.org/2000/svg">
<path d="M2.69999 17.6252C2.49999 17.4252 2.40399 17.1878 2.41199 16.9132C2.41999 16.6385 2.51599 16.4092 2.69999 16.2252L7.97499 10.8752C8.35832 10.4918 8.83332 10.3002 9.39999 10.3002C9.96666 10.3002 10.4417 10.4918 10.825 10.8752L13.4 13.4752L18.6 8.32517H17C16.7167 8.32517 16.4793 8.22917 16.288 8.03717C16.0967 7.84517 16.0007 7.60818 16 7.32618C15.9993 7.04418 16.0953 6.80684 16.288 6.61417C16.4807 6.42151 16.718 6.32551 17 6.32618H21C21.2833 6.32618 21.521 6.42217 21.713 6.61417C21.905 6.80617 22.0007 7.04351 22 7.32618V11.3262C22 11.6095 21.904 11.8472 21.712 12.0392C21.52 12.2312 21.2827 12.3268 21 12.3262C20.7173 12.3255 20.48 12.2298 20.288 12.0392C20.096 11.8485 20 11.6108 20 11.3262V9.72617L14.825 14.9002C14.4417 15.2835 13.9667 15.4752 13.4 15.4752C12.8333 15.4752 12.3583 15.2835 11.975 14.9002L9.39999 12.3252L4.09999 17.6252C3.91666 17.8085 3.68332 17.9002 3.39999 17.9002C3.11666 17.9002 2.88332 17.8085 2.69999 17.6252Z" fill="white"/>
</svg>
